<svg xmlns="http://www.w3.org/2000/svg" viewBox="0 0 200 200">
  <path d="M48 62 L40 24 L76 48 Z" fill="#f59e0b"/>
  <path d="M152 62 L160 24 L124 48 Z" fill="#f59e0b"/>
  <ellipse cx="100" cy="112" rx="66" ry="70" fill="#fb923c"/>
  <ellipse cx="100" cy="132" rx="44" ry="46" fill="#fff1dc"/>
  <circle cx="74" cy="88" r="26" fill="#fff"/>
  <circle cx="126" cy="88" r="26" fill="#fff"/>
  <circle cx="76" cy="90" r="17" fill="#1e293b"/>
  <circle cx="124" cy="90" r="17" fill="#1e293b"/>
  <circle cx="82" cy="83" r="6.5" fill="#fff"/>
  <circle cx="130" cy="83" r="6.5" fill="#fff"/>
  <ellipse cx="52" cy="112" rx="10" ry="6" fill="#fb7185" opacity=".55"/>
  <ellipse cx="148" cy="112" rx="10" ry="6" fill="#fb7185" opacity=".55"/>
  <path d="M92 106 Q100 100 108 106 Q100 118 92 106 Z" fill="#f59e0b"/>
  <path d="M100 16 L148 32 L100 48 L52 32 Z" fill="#1e3a8a"/>
  <path d="M72 38 V50 Q100 62 128 50 V38 L100 48 Z" fill="#1e40af"/>
  <path d="M148 32 V56" stroke="#facc15" stroke-width="3"/>
  <circle cx="148" cy="58" r="5" fill="#facc15"/>
</svg>
